<mxfile host="app.diagrams.net" modified="2023-06-04T10:50:09.020Z" agent="Mozilla/5.0 (Macintosh; Intel Mac OS X 10_15_7) AppleWebKit/537.36 (KHTML, like Gecko) Chrome/112.0.0.0 Safari/537.36 OPR/98.0.0.0" etag="IgBvpeaDk3VHjNuT0iGu" version="21.3.7" type="device">
  <diagram name="Pagina-1" id="3BKUAXqAZDLXHMni7vzD">
    <mxGraphModel dx="1826" dy="2058" grid="0" gridSize="10" guides="1" tooltips="1" connect="1" arrows="1" fold="1" page="0" pageScale="1" pageWidth="827" pageHeight="1169" math="0" shadow="0">
      <root>
        <mxCell id="0" />
        <mxCell id="1" parent="0" />
        <mxCell id="NkVyf-gQofDj3GIR85Gt-99" style="edgeStyle=none;curved=1;rounded=0;orthogonalLoop=1;jettySize=auto;html=1;entryX=0.5;entryY=1;entryDx=0;entryDy=0;fontSize=12;startSize=8;endSize=8;endArrow=diamond;endFill=0;" edge="1" parent="1" source="NkVyf-gQofDj3GIR85Gt-13" target="NkVyf-gQofDj3GIR85Gt-92">
          <mxGeometry relative="1" as="geometry">
            <Array as="points">
              <mxPoint x="-93" y="-721" />
            </Array>
          </mxGeometry>
        </mxCell>
        <mxCell id="NkVyf-gQofDj3GIR85Gt-100" value="&lt;font style=&quot;font-size: 12px;&quot;&gt;1-N&lt;/font&gt;" style="edgeLabel;html=1;align=center;verticalAlign=middle;resizable=0;points=[];fontSize=16;" vertex="1" connectable="0" parent="NkVyf-gQofDj3GIR85Gt-99">
          <mxGeometry x="0.259" y="-2" relative="1" as="geometry">
            <mxPoint as="offset" />
          </mxGeometry>
        </mxCell>
        <mxCell id="NkVyf-gQofDj3GIR85Gt-13" value="&lt;p style=&quot;margin:0px;margin-top:4px;text-align:center;&quot;&gt;&lt;i&gt;&amp;lt;&amp;lt;Interface&amp;gt;&amp;gt;&lt;/i&gt;&lt;br&gt;&lt;b&gt;Action&lt;/b&gt;&lt;/p&gt;&lt;hr size=&quot;1&quot;&gt;&lt;p style=&quot;margin:0px;margin-left:4px;&quot;&gt;+ canExecute(): boolean&lt;br&gt;+ execute():&amp;nbsp;Optional&amp;lt;List&amp;lt;WorldEvent&amp;gt;&amp;gt;&lt;br&gt;&lt;/p&gt;&lt;p style=&quot;margin:0px;margin-left:4px;&quot;&gt;+ setPlayer(Entity): void&lt;/p&gt;&lt;p style=&quot;margin:0px;margin-left:4px;&quot;&gt;+ setEnemy(Entity): void&lt;/p&gt;" style="verticalAlign=top;align=left;overflow=fill;fontSize=12;fontFamily=Helvetica;html=1;whiteSpace=wrap;rounded=0;" vertex="1" parent="1">
          <mxGeometry x="-443" y="-667" width="242" height="115" as="geometry" />
        </mxCell>
        <mxCell id="NkVyf-gQofDj3GIR85Gt-19" style="edgeStyle=none;curved=1;rounded=0;orthogonalLoop=1;jettySize=auto;html=1;fontSize=12;startSize=8;endSize=8;entryX=1;entryY=0.5;entryDx=0;entryDy=0;" edge="1" parent="1" source="NkVyf-gQofDj3GIR85Gt-18" target="NkVyf-gQofDj3GIR85Gt-13">
          <mxGeometry relative="1" as="geometry">
            <mxPoint x="-190" y="-607" as="targetPoint" />
          </mxGeometry>
        </mxCell>
        <mxCell id="NkVyf-gQofDj3GIR85Gt-18" value="&lt;p style=&quot;margin:0px;margin-top:4px;text-align:center;&quot;&gt;&lt;b&gt;AbstarctAction&lt;/b&gt;&lt;/p&gt;&lt;hr size=&quot;1&quot;&gt;&lt;p style=&quot;margin:0px;margin-left:4px;&quot;&gt;+ aggroRay: double&lt;br&gt;+ waintingTime: double&lt;br&gt;&lt;/p&gt;&lt;hr size=&quot;1&quot;&gt;&lt;p style=&quot;margin:0px;margin-left:4px;&quot;&gt;+ reloadTimePassed(): boolean&lt;/p&gt;" style="verticalAlign=top;align=left;overflow=fill;fontSize=12;fontFamily=Helvetica;html=1;whiteSpace=wrap;" vertex="1" parent="1">
          <mxGeometry x="-96" y="-659.5" width="190" height="100" as="geometry" />
        </mxCell>
        <mxCell id="NkVyf-gQofDj3GIR85Gt-51" style="edgeStyle=none;curved=1;rounded=0;orthogonalLoop=1;jettySize=auto;html=1;entryX=0.7;entryY=1.05;entryDx=0;entryDy=0;entryPerimeter=0;fontSize=12;startSize=8;endSize=8;endArrow=none;endFill=0;" edge="1" parent="1" source="NkVyf-gQofDj3GIR85Gt-20" target="NkVyf-gQofDj3GIR85Gt-33">
          <mxGeometry relative="1" as="geometry" />
        </mxCell>
        <mxCell id="NkVyf-gQofDj3GIR85Gt-20" value="&lt;p style=&quot;margin:0px;margin-top:4px;text-align:center;&quot;&gt;&lt;b&gt;MeleeAttack&lt;/b&gt;&lt;/p&gt;&lt;hr size=&quot;1&quot;&gt;&lt;p style=&quot;margin:0px;margin-left:4px;&quot;&gt;+ meleeAttack():&amp;nbsp;Optional&amp;lt;List&amp;lt;WorldEvent&amp;gt;&amp;gt;&lt;/p&gt;" style="verticalAlign=top;align=left;overflow=fill;fontSize=12;fontFamily=Helvetica;html=1;whiteSpace=wrap;" vertex="1" parent="1">
          <mxGeometry x="-416" y="-446" width="266" height="58" as="geometry" />
        </mxCell>
        <mxCell id="NkVyf-gQofDj3GIR85Gt-40" style="edgeStyle=none;curved=1;rounded=0;orthogonalLoop=1;jettySize=auto;html=1;entryX=0.65;entryY=0.95;entryDx=0;entryDy=0;entryPerimeter=0;fontSize=12;startSize=8;endSize=8;endArrow=none;endFill=0;" edge="1" parent="1" source="NkVyf-gQofDj3GIR85Gt-21" target="NkVyf-gQofDj3GIR85Gt-37">
          <mxGeometry relative="1" as="geometry" />
        </mxCell>
        <mxCell id="NkVyf-gQofDj3GIR85Gt-21" value="&lt;p style=&quot;margin:0px;margin-top:4px;text-align:center;&quot;&gt;&lt;b&gt;RandomMovement&lt;/b&gt;&lt;/p&gt;" style="verticalAlign=top;align=left;overflow=fill;fontSize=12;fontFamily=Helvetica;html=1;whiteSpace=wrap;" vertex="1" parent="1">
          <mxGeometry x="197.5" y="-448" width="125" height="30" as="geometry" />
        </mxCell>
        <mxCell id="NkVyf-gQofDj3GIR85Gt-50" style="edgeStyle=none;curved=1;rounded=0;orthogonalLoop=1;jettySize=auto;html=1;entryX=0.8;entryY=0.6;entryDx=0;entryDy=0;entryPerimeter=0;fontSize=12;startSize=8;endSize=8;endArrow=none;endFill=0;" edge="1" parent="1" source="NkVyf-gQofDj3GIR85Gt-22" target="NkVyf-gQofDj3GIR85Gt-34">
          <mxGeometry relative="1" as="geometry" />
        </mxCell>
        <mxCell id="NkVyf-gQofDj3GIR85Gt-22" value="&lt;p style=&quot;margin:0px;margin-top:4px;text-align:center;&quot;&gt;&lt;b&gt;DistanceAttack&lt;/b&gt;&lt;/p&gt;&lt;hr size=&quot;1&quot;&gt;&lt;p style=&quot;margin:0px;margin-left:4px;&quot;&gt;+ distanceAttack():&amp;nbsp;Optional&amp;lt;List&amp;lt;WorldEvent&amp;gt;&amp;gt;&lt;/p&gt;" style="verticalAlign=top;align=left;overflow=fill;fontSize=12;fontFamily=Helvetica;html=1;whiteSpace=wrap;" vertex="1" parent="1">
          <mxGeometry x="-203" y="-363" width="266" height="58" as="geometry" />
        </mxCell>
        <mxCell id="NkVyf-gQofDj3GIR85Gt-49" style="edgeStyle=none;curved=1;rounded=0;orthogonalLoop=1;jettySize=auto;html=1;entryX=0.625;entryY=0.95;entryDx=0;entryDy=0;entryPerimeter=0;fontSize=12;startSize=8;endSize=8;endArrow=none;endFill=0;" edge="1" parent="1" source="NkVyf-gQofDj3GIR85Gt-24">
          <mxGeometry relative="1" as="geometry">
            <mxPoint x="179.5" y="-489" as="targetPoint" />
          </mxGeometry>
        </mxCell>
        <mxCell id="NkVyf-gQofDj3GIR85Gt-24" value="&lt;p style=&quot;margin:0px;margin-top:4px;text-align:center;&quot;&gt;&lt;b&gt;FollowMovement&lt;/b&gt;&lt;/p&gt;" style="verticalAlign=top;align=left;overflow=fill;fontSize=12;fontFamily=Helvetica;html=1;whiteSpace=wrap;" vertex="1" parent="1">
          <mxGeometry x="122" y="-374" width="115" height="30" as="geometry" />
        </mxCell>
        <mxCell id="NkVyf-gQofDj3GIR85Gt-52" style="edgeStyle=none;curved=1;rounded=0;orthogonalLoop=1;jettySize=auto;html=1;fontSize=12;startSize=8;endSize=8;endArrow=none;endFill=0;" edge="1" parent="1" source="NkVyf-gQofDj3GIR85Gt-33" target="NkVyf-gQofDj3GIR85Gt-34">
          <mxGeometry relative="1" as="geometry" />
        </mxCell>
        <mxCell id="NkVyf-gQofDj3GIR85Gt-33" value="" style="shape=waypoint;sketch=0;size=6;pointerEvents=1;points=[];fillColor=none;resizable=0;rotatable=0;perimeter=centerPerimeter;snapToPoint=1;fontSize=16;strokeColor=none;" vertex="1" parent="1">
          <mxGeometry x="-293" y="-499" width="20" height="20" as="geometry" />
        </mxCell>
        <mxCell id="NkVyf-gQofDj3GIR85Gt-53" style="edgeStyle=none;curved=1;rounded=0;orthogonalLoop=1;jettySize=auto;html=1;entryX=0.3;entryY=0.5;entryDx=0;entryDy=0;entryPerimeter=0;fontSize=12;startSize=8;endSize=8;endArrow=none;endFill=0;" edge="1" parent="1" source="NkVyf-gQofDj3GIR85Gt-34" target="NkVyf-gQofDj3GIR85Gt-43">
          <mxGeometry relative="1" as="geometry" />
        </mxCell>
        <mxCell id="NkVyf-gQofDj3GIR85Gt-34" value="" style="shape=waypoint;sketch=0;size=6;pointerEvents=1;points=[];fillColor=none;resizable=0;rotatable=0;perimeter=centerPerimeter;snapToPoint=1;fontSize=16;strokeColor=none;" vertex="1" parent="1">
          <mxGeometry x="-80" y="-499" width="20" height="20" as="geometry" />
        </mxCell>
        <mxCell id="NkVyf-gQofDj3GIR85Gt-59" style="edgeStyle=none;curved=1;rounded=0;orthogonalLoop=1;jettySize=auto;html=1;fontSize=12;startSize=8;endSize=8;endArrow=none;endFill=0;" edge="1" parent="1" source="NkVyf-gQofDj3GIR85Gt-35" target="NkVyf-gQofDj3GIR85Gt-37">
          <mxGeometry relative="1" as="geometry" />
        </mxCell>
        <mxCell id="NkVyf-gQofDj3GIR85Gt-35" value="" style="shape=waypoint;sketch=0;size=6;pointerEvents=1;points=[];fillColor=none;resizable=0;rotatable=0;perimeter=centerPerimeter;snapToPoint=1;fontSize=16;strokeColor=none;" vertex="1" parent="1">
          <mxGeometry x="169.5" y="-499" width="20" height="20" as="geometry" />
        </mxCell>
        <mxCell id="NkVyf-gQofDj3GIR85Gt-37" value="" style="shape=waypoint;sketch=0;size=6;pointerEvents=1;points=[];fillColor=none;resizable=0;rotatable=0;perimeter=centerPerimeter;snapToPoint=1;fontSize=16;strokeColor=none;" vertex="1" parent="1">
          <mxGeometry x="250" y="-499" width="20" height="20" as="geometry" />
        </mxCell>
        <mxCell id="NkVyf-gQofDj3GIR85Gt-55" style="edgeStyle=none;curved=1;rounded=0;orthogonalLoop=1;jettySize=auto;html=1;fontSize=12;startSize=8;endSize=8;entryX=0.5;entryY=1;entryDx=0;entryDy=0;endArrow=block;endFill=0;" edge="1" parent="1" source="NkVyf-gQofDj3GIR85Gt-43" target="NkVyf-gQofDj3GIR85Gt-18">
          <mxGeometry relative="1" as="geometry">
            <mxPoint x="17" y="-547" as="targetPoint" />
          </mxGeometry>
        </mxCell>
        <mxCell id="NkVyf-gQofDj3GIR85Gt-43" value="" style="shape=waypoint;sketch=0;size=6;pointerEvents=1;points=[];fillColor=none;resizable=0;rotatable=0;perimeter=centerPerimeter;snapToPoint=1;fontSize=16;strokeColor=none;" vertex="1" parent="1">
          <mxGeometry x="-11" y="-499" width="20" height="20" as="geometry" />
        </mxCell>
        <mxCell id="NkVyf-gQofDj3GIR85Gt-46" style="edgeStyle=none;curved=1;rounded=0;orthogonalLoop=1;jettySize=auto;html=1;fontSize=12;startSize=8;endSize=8;endArrow=none;endFill=0;" edge="1" parent="1" target="NkVyf-gQofDj3GIR85Gt-43">
          <mxGeometry relative="1" as="geometry">
            <mxPoint x="180" y="-489" as="sourcePoint" />
            <mxPoint x="75" y="-475" as="targetPoint" />
          </mxGeometry>
        </mxCell>
        <mxCell id="NkVyf-gQofDj3GIR85Gt-67" value="&lt;p style=&quot;margin:0px;margin-top:4px;text-align:center;&quot;&gt;&lt;b&gt;AttackUtil&lt;/b&gt;&lt;/p&gt;&lt;hr size=&quot;1&quot;&gt;&lt;p style=&quot;margin:0px;margin-left:4px;&quot;&gt;+ getPlayerDirection(Vector2D, Vector2D):&amp;nbsp;Vector2D&lt;/p&gt;&lt;p style=&quot;margin:0px;margin-left:4px;&quot;&gt;&lt;br&gt;&lt;/p&gt;" style="verticalAlign=top;align=left;overflow=fill;fontSize=12;fontFamily=Helvetica;html=1;whiteSpace=wrap;" vertex="1" parent="1">
          <mxGeometry x="-328" y="-161" width="300" height="72" as="geometry" />
        </mxCell>
        <mxCell id="NkVyf-gQofDj3GIR85Gt-73" value="use" style="endArrow=open;endSize=12;dashed=1;html=1;rounded=0;fontSize=12;curved=1;entryX=0.5;entryY=0;entryDx=0;entryDy=0;exitX=0.5;exitY=0.75;exitDx=0;exitDy=0;exitPerimeter=0;" edge="1" parent="1" source="NkVyf-gQofDj3GIR85Gt-74" target="NkVyf-gQofDj3GIR85Gt-67">
          <mxGeometry width="160" relative="1" as="geometry">
            <mxPoint x="-127" y="-214" as="sourcePoint" />
            <mxPoint x="-141" y="-207" as="targetPoint" />
          </mxGeometry>
        </mxCell>
        <mxCell id="NkVyf-gQofDj3GIR85Gt-74" value="" style="shape=waypoint;sketch=0;size=6;pointerEvents=1;points=[];fillColor=none;resizable=0;rotatable=0;perimeter=centerPerimeter;snapToPoint=1;fontSize=16;strokeColor=none;" vertex="1" parent="1">
          <mxGeometry x="-188" y="-248" width="20" height="20" as="geometry" />
        </mxCell>
        <mxCell id="NkVyf-gQofDj3GIR85Gt-76" value="" style="shape=waypoint;sketch=0;size=6;pointerEvents=1;points=[];fillColor=none;resizable=0;rotatable=0;perimeter=centerPerimeter;snapToPoint=1;fontSize=16;strokeColor=none;" vertex="1" parent="1">
          <mxGeometry x="-293" y="-248" width="20" height="20" as="geometry" />
        </mxCell>
        <mxCell id="NkVyf-gQofDj3GIR85Gt-77" value="" style="shape=waypoint;sketch=0;size=6;pointerEvents=1;points=[];fillColor=none;resizable=0;rotatable=0;perimeter=centerPerimeter;snapToPoint=1;fontSize=16;strokeColor=none;" vertex="1" parent="1">
          <mxGeometry x="-80" y="-248" width="20" height="20" as="geometry" />
        </mxCell>
        <mxCell id="NkVyf-gQofDj3GIR85Gt-78" value="" style="shape=waypoint;sketch=0;size=6;pointerEvents=1;points=[];fillColor=none;resizable=0;rotatable=0;perimeter=centerPerimeter;snapToPoint=1;fontSize=16;strokeColor=none;" vertex="1" parent="1">
          <mxGeometry x="169.5" y="-248" width="20" height="20" as="geometry" />
        </mxCell>
        <mxCell id="NkVyf-gQofDj3GIR85Gt-79" value="" style="endArrow=none;dashed=1;html=1;rounded=0;fontSize=12;startSize=8;endSize=8;curved=1;entryX=0.5;entryY=1;entryDx=0;entryDy=0;exitX=0.275;exitY=0.4;exitDx=0;exitDy=0;exitPerimeter=0;" edge="1" parent="1" source="NkVyf-gQofDj3GIR85Gt-78" target="NkVyf-gQofDj3GIR85Gt-24">
          <mxGeometry width="50" height="50" relative="1" as="geometry">
            <mxPoint x="88" y="-250" as="sourcePoint" />
            <mxPoint x="138" y="-300" as="targetPoint" />
          </mxGeometry>
        </mxCell>
        <mxCell id="NkVyf-gQofDj3GIR85Gt-80" value="" style="endArrow=none;dashed=1;html=1;rounded=0;fontSize=12;startSize=8;endSize=8;curved=1;entryX=0.7;entryY=0.55;entryDx=0;entryDy=0;exitX=0.375;exitY=0.75;exitDx=0;exitDy=0;exitPerimeter=0;entryPerimeter=0;" edge="1" parent="1" source="NkVyf-gQofDj3GIR85Gt-78" target="NkVyf-gQofDj3GIR85Gt-77">
          <mxGeometry width="50" height="50" relative="1" as="geometry">
            <mxPoint x="190" y="-228" as="sourcePoint" />
            <mxPoint x="190" y="-334" as="targetPoint" />
          </mxGeometry>
        </mxCell>
        <mxCell id="NkVyf-gQofDj3GIR85Gt-81" value="" style="endArrow=none;dashed=1;html=1;rounded=0;fontSize=12;startSize=8;endSize=8;curved=1;exitX=0.05;exitY=0.85;exitDx=0;exitDy=0;exitPerimeter=0;" edge="1" parent="1" source="NkVyf-gQofDj3GIR85Gt-77" target="NkVyf-gQofDj3GIR85Gt-74">
          <mxGeometry width="50" height="50" relative="1" as="geometry">
            <mxPoint x="65" y="-228" as="sourcePoint" />
            <mxPoint x="-185" y="-228" as="targetPoint" />
          </mxGeometry>
        </mxCell>
        <mxCell id="NkVyf-gQofDj3GIR85Gt-82" value="" style="endArrow=none;dashed=1;html=1;rounded=0;fontSize=12;startSize=8;endSize=8;curved=1;exitX=0.8;exitY=0.9;exitDx=0;exitDy=0;exitPerimeter=0;entryX=0.7;entryY=0.7;entryDx=0;entryDy=0;entryPerimeter=0;" edge="1" parent="1" source="NkVyf-gQofDj3GIR85Gt-74" target="NkVyf-gQofDj3GIR85Gt-76">
          <mxGeometry width="50" height="50" relative="1" as="geometry">
            <mxPoint x="-60" y="-228" as="sourcePoint" />
            <mxPoint x="-168" y="-228" as="targetPoint" />
          </mxGeometry>
        </mxCell>
        <mxCell id="NkVyf-gQofDj3GIR85Gt-83" value="" style="endArrow=none;dashed=1;html=1;rounded=0;fontSize=12;startSize=8;endSize=8;curved=1;exitX=0.5;exitY=1;exitDx=0;exitDy=0;entryX=0.75;entryY=0.55;entryDx=0;entryDy=0;entryPerimeter=0;" edge="1" parent="1" source="NkVyf-gQofDj3GIR85Gt-20" target="NkVyf-gQofDj3GIR85Gt-76">
          <mxGeometry width="50" height="50" relative="1" as="geometry">
            <mxPoint x="-168" y="-228" as="sourcePoint" />
            <mxPoint x="-280" y="-237" as="targetPoint" />
          </mxGeometry>
        </mxCell>
        <mxCell id="NkVyf-gQofDj3GIR85Gt-85" value="" style="endArrow=none;dashed=1;html=1;rounded=0;fontSize=12;startSize=8;endSize=8;curved=1;exitX=0.5;exitY=1;exitDx=0;exitDy=0;entryX=1;entryY=0.05;entryDx=0;entryDy=0;entryPerimeter=0;" edge="1" parent="1" source="NkVyf-gQofDj3GIR85Gt-22" target="NkVyf-gQofDj3GIR85Gt-77">
          <mxGeometry width="50" height="50" relative="1" as="geometry">
            <mxPoint x="-113" y="-414" as="sourcePoint" />
            <mxPoint x="-63" y="-464" as="targetPoint" />
          </mxGeometry>
        </mxCell>
        <mxCell id="NkVyf-gQofDj3GIR85Gt-87" style="edgeStyle=none;curved=1;rounded=0;orthogonalLoop=1;jettySize=auto;html=1;entryX=0.5;entryY=0;entryDx=0;entryDy=0;fontSize=12;startSize=8;endSize=8;dashed=1;endArrow=open;endFill=0;" edge="1" parent="1" source="NkVyf-gQofDj3GIR85Gt-86" target="NkVyf-gQofDj3GIR85Gt-13">
          <mxGeometry relative="1" as="geometry">
            <Array as="points">
              <mxPoint x="-322" y="-748" />
            </Array>
          </mxGeometry>
        </mxCell>
        <mxCell id="NkVyf-gQofDj3GIR85Gt-88" value="&lt;font style=&quot;font-size: 12px;&quot;&gt;create collection of&lt;/font&gt;" style="edgeLabel;html=1;align=center;verticalAlign=middle;resizable=0;points=[];fontSize=16;" vertex="1" connectable="0" parent="NkVyf-gQofDj3GIR85Gt-87">
          <mxGeometry x="-0.1778" y="2" relative="1" as="geometry">
            <mxPoint as="offset" />
          </mxGeometry>
        </mxCell>
        <mxCell id="NkVyf-gQofDj3GIR85Gt-86" value="&lt;p style=&quot;margin:0px;margin-top:4px;text-align:center;&quot;&gt;&lt;br&gt;&lt;b&gt;RoutineFactory&lt;/b&gt;&lt;/p&gt;" style="verticalAlign=top;align=left;overflow=fill;fontSize=12;fontFamily=Helvetica;html=1;whiteSpace=wrap;" vertex="1" parent="1">
          <mxGeometry x="-375" y="-832" width="106" height="45" as="geometry" />
        </mxCell>
        <mxCell id="NkVyf-gQofDj3GIR85Gt-94" style="edgeStyle=none;curved=1;rounded=0;orthogonalLoop=1;jettySize=auto;html=1;entryX=1;entryY=0.5;entryDx=0;entryDy=0;fontSize=12;startSize=8;endSize=8;dashed=1;endArrow=open;endFill=0;" edge="1" parent="1" source="NkVyf-gQofDj3GIR85Gt-92" target="NkVyf-gQofDj3GIR85Gt-86">
          <mxGeometry relative="1" as="geometry" />
        </mxCell>
        <mxCell id="NkVyf-gQofDj3GIR85Gt-97" value="&lt;font style=&quot;font-size: 12px;&quot;&gt;use&lt;/font&gt;" style="edgeLabel;html=1;align=center;verticalAlign=middle;resizable=0;points=[];fontSize=16;" vertex="1" connectable="0" parent="NkVyf-gQofDj3GIR85Gt-94">
          <mxGeometry x="-0.0992" relative="1" as="geometry">
            <mxPoint x="1" as="offset" />
          </mxGeometry>
        </mxCell>
        <mxCell id="NkVyf-gQofDj3GIR85Gt-92" value="&lt;p style=&quot;margin:0px;margin-top:4px;text-align:center;&quot;&gt;&lt;b&gt;&lt;font style=&quot;font-size: 17px;&quot;&gt;AIComponent&lt;/font&gt;&lt;/b&gt;&lt;/p&gt;&lt;hr size=&quot;1&quot;&gt;&lt;p style=&quot;margin:0px;margin-left:4px;&quot;&gt;+ actions&lt;span style=&quot;background-color: initial;&quot;&gt;: List&amp;lt;Action&amp;gt;&lt;/span&gt;&lt;/p&gt;&lt;p style=&quot;margin:0px;margin-left:4px;&quot;&gt;&lt;span style=&quot;background-color: initial;&quot;&gt;+ aggroRay: double&lt;/span&gt;&lt;/p&gt;&lt;p style=&quot;margin:0px;margin-left:4px;&quot;&gt;&lt;span style=&quot;background-color: initial;&quot;&gt;+ waitngTime: double&lt;/span&gt;&lt;/p&gt;" style="verticalAlign=top;align=left;overflow=fill;fontSize=12;fontFamily=Helvetica;html=1;whiteSpace=wrap;" vertex="1" parent="1">
          <mxGeometry x="-72.5" y="-856" width="143" height="93" as="geometry" />
        </mxCell>
        <mxCell id="NkVyf-gQofDj3GIR85Gt-95" style="edgeStyle=none;curved=1;rounded=0;orthogonalLoop=1;jettySize=auto;html=1;entryX=1;entryY=0.5;entryDx=0;entryDy=0;fontSize=12;startSize=8;endSize=8;" edge="1" parent="1" source="NkVyf-gQofDj3GIR85Gt-93" target="NkVyf-gQofDj3GIR85Gt-92">
          <mxGeometry relative="1" as="geometry">
            <Array as="points" />
          </mxGeometry>
        </mxCell>
        <mxCell id="NkVyf-gQofDj3GIR85Gt-98" value="&lt;font style=&quot;font-size: 12px;&quot;&gt;update&lt;/font&gt;" style="edgeLabel;html=1;align=center;verticalAlign=middle;resizable=0;points=[];fontSize=16;" vertex="1" connectable="0" parent="NkVyf-gQofDj3GIR85Gt-95">
          <mxGeometry x="-0.3873" y="2" relative="1" as="geometry">
            <mxPoint x="-20" y="-2" as="offset" />
          </mxGeometry>
        </mxCell>
        <mxCell id="NkVyf-gQofDj3GIR85Gt-93" value="&lt;p style=&quot;margin:0px;margin-top:4px;text-align:center;&quot;&gt;&lt;b&gt;&lt;font style=&quot;font-size: 17px;&quot;&gt;AISystem&lt;/font&gt;&lt;/b&gt;&lt;/p&gt;" style="verticalAlign=top;align=left;overflow=fill;fontSize=12;fontFamily=Helvetica;html=1;whiteSpace=wrap;" vertex="1" parent="1">
          <mxGeometry x="212.5" y="-827.5" width="95" height="36" as="geometry" />
        </mxCell>
      </root>
    </mxGraphModel>
  </diagram>
</mxfile>
